# xmcd
#
# Track frame offsets:
#	182
#	15025
#	36612
#	61612
#	75857
#	88382
#	107160
#	119607
#	132847
#	149507
#	179082
#	199812
#	225435
#	240250
#	255292
#
# Disc length: 3741 seconds
#
# Revision: 0
# Processed by: cddbd v1.5.2PL0 Copyright (c) Steve Scherf et al.
# Submitted via: EZCDAudioConverter 2.1.7.1
#
DISCID=bf0e9b0f
DTITLE=V/A - Bridge School Concerts V1
DYEAR=1997
DGENRE=
TTITLE0=Neil Young - I Am A Child
TTITLE1=Tom Petty - Shadow Of A Doubt (A Complex Kid)
TTITLE2=Tracy Chapman - All That You Have Is Your Soul
TTITLE3=Pretenders with The Duke String Quartet - Sense Of Purpose
TTITLE4=Beck - It's All In Your Mind
TTITLE5=Bonnie Raitt - The Road's My Middle Name
TTITLE6=Don Henley - Yes It Is
TTITLE7=Ministry - Friend Of The Devil
TTITLE8=Simon and Garfunkel - America
TTITLE9=David Bowie - Heroes
TTITLE10=Pearl Jam - Nothingman
TTITLE11=Lovemongers - Battle Of Evermore
TTITLE12=Nils Lofgren - Believe
TTITLE13=Elvis Costello - Alison
TTITLE14=Patti Smith - People Have The Power
EXTD=
EXTT0=
EXTT1=
EXTT2=
EXTT3=
EXTT4=
EXTT5=
EXTT6=
EXTT7=
EXTT8=
EXTT9=
EXTT10=
EXTT11=
EXTT12=
EXTT13=
EXTT14=
PLAYORDER=
